<svg viewBox="0 0 191 234" fill="none" xmlns="http://www.w3.org/2000/svg">
<path fill-rule="evenodd" clip-rule="evenodd" d="M96.7889 211.304L168.595 215.476L205.49 176.676L203.522 134.434L197.58 139.173L161.024 188.912C161.024 188.912 159.131 186.54 157.509 187.489C157.028 187.785 156.632 188.175 156.351 188.627C156.069 189.08 155.91 189.583 155.886 190.098C155.886 190.098 154.669 187.963 153.317 188.319C151.966 188.674 151.966 190.572 151.966 190.572L96.9475 189.887L96.7889 211.304Z" fill="#191821"/>
<path fill-rule="evenodd" clip-rule="evenodd" d="M201.17 159.236L164.093 197.34C164.093 197.34 165.82 200.153 164.216 201.343C162.613 202.533 160.886 197.772 160.886 197.772L106.249 197.231L105.15 211.786L168.595 215.472L201.69 177.321L201.676 233.803H212.837L211.331 186.197L229.338 192.688L229.214 190.741L205.904 182.735L205.461 176.035C205.461 176.035 208.124 160.774 201.17 159.236Z" fill="#14131A"/>
<path fill-rule="evenodd" clip-rule="evenodd" d="M75.5631 219.899L59.0166 218.03L40.9658 215.611L1.85597 218.579C1.85597 218.579 0.602165 219.129 0.35125 216.381C0.100754 213.632 0.853111 192.961 0.853111 192.961L38.9601 193.071L77.0674 193.4L75.5631 219.899Z" fill="#824324"/>
<path d="M29.3184 198.082H4.62524C4.15972 198.082 3.71327 198.244 3.38409 198.533C3.05492 198.822 2.86999 199.213 2.86999 199.622V209.627C2.86999 210.035 3.05491 210.427 3.38408 210.715C3.71325 211.004 4.1597 211.166 4.62521 211.166H29.3184C29.7838 211.166 30.2301 211.004 30.5592 210.715C30.8884 210.427 31.0732 210.035 31.0732 209.627V199.621C31.0732 199.213 30.8884 198.822 30.5593 198.533C30.2302 198.244 29.7838 198.082 29.3184 198.082Z" fill="#A35934"/>
<path fill-rule="evenodd" clip-rule="evenodd" d="M40.4621 182.514L75.9346 193.389C75.9346 193.389 0.869255 192.417 0.85009 192.959C0.830513 193.502 40.4621 182.514 40.4621 182.514Z" fill="#5C2715"/>
<path d="M94.7136 189.783H102.106V211.396H94.7136V189.783Z" fill="#D9E0EB"/>
<path fill-rule="evenodd" clip-rule="evenodd" d="M45.9749 184.054C45.9749 184.054 62.0203 178.556 64.7781 178.996C67.5358 179.436 78.5668 190.871 82.0765 190.871C83.9757 190.871 87.5625 190.806 90.4549 190.747C90.839 190.739 91.2106 190.731 91.5644 190.724C93.472 190.684 94.8627 190.651 94.8627 190.651L95.1133 210.002L74.3047 217.259L74.721 204.11L75.0567 193.509L58.7608 188.452C58.7608 188.452 52.8693 190.871 49.9865 190.431C47.1033 189.991 43.7187 185.483 45.9749 184.054Z" fill="#FEB978"/>
<path fill-rule="evenodd" clip-rule="evenodd" d="M76.3109 206.642C74.642 206.601 82.3138 207.456 85.767 205.617C89.2203 203.778 88.5978 190.777 88.5978 190.777H94.7111L95.1133 209.996L74.3047 217.252L74.6527 206.259L76.3109 206.642Z" fill="#FF8A4F"/>
<path d="M0.766678 193.066H74.6357V195.331H0.766678V193.066Z" fill="#9C512B"/>
<path fill-rule="evenodd" clip-rule="evenodd" d="M13.9297 195.331V198.084L34.5271 198.426L34.28 216.817L43.1604 216.709L43.5304 199.4L73.0077 199.941L72.447 219.546L75.5599 219.898L76.3105 196.26L76.4014 193.394L74.6357 193.066V195.331H13.9297Z" fill="#6E391E"/>
<path fill-rule="evenodd" clip-rule="evenodd" d="M59.0137 217.278C59.0137 217.278 52.789 207.314 49.0539 206.632C45.3191 205.949 43.9184 208.816 43.9184 208.816C43.9184 208.816 41.5842 205.676 38.4719 205.13C35.3596 204.584 34.7371 205.54 34.2704 206.768C33.8032 207.996 36.6042 214.275 36.6042 214.275L24.4662 214.822C24.4662 214.822 20.7311 217.824 24.4662 219.872C28.201 221.919 40.8064 219.463 40.8064 219.463C41.4271 220.065 42.2031 220.527 43.0694 220.812C43.9358 221.097 44.8674 221.196 45.7862 221.1C49.0539 220.827 49.6767 219.599 49.6767 219.599C49.6767 219.599 57.1462 222.602 59.0137 217.278Z" fill="#FF8A4F"/>
<path fill-rule="evenodd" clip-rule="evenodd" d="M12.6346 198.912L12.3881 210.433L27.127 211.166H4.62444C4.15934 211.165 3.71367 211.002 3.38478 210.714C3.0559 210.426 2.87054 210.035 2.86919 209.627V199.621C2.87062 199.213 3.05601 198.823 3.38489 198.534C3.71377 198.246 4.1594 198.083 4.62444 198.082H13.929L25.6477 198.277L12.6346 198.912Z" fill="#B5643C"/>
<path d="M3.63316 195.566H4.70431C4.77536 195.566 4.8435 195.541 4.89374 195.497C4.94398 195.453 4.9722 195.393 4.9722 195.331C4.9722 195.268 4.94398 195.209 4.89374 195.165C4.8435 195.12 4.77536 195.096 4.70431 195.096H3.63316C3.5621 195.096 3.49397 195.12 3.44373 195.165C3.39349 195.209 3.36526 195.268 3.36526 195.331C3.36526 195.393 3.39349 195.453 3.44373 195.497C3.49397 195.541 3.5621 195.566 3.63316 195.566ZM6.31084 195.566H7.38162C7.45267 195.566 7.52081 195.541 7.57105 195.497C7.62129 195.453 7.64951 195.393 7.64951 195.331C7.64951 195.268 7.62129 195.209 7.57105 195.165C7.52081 195.12 7.45267 195.096 7.38162 195.096H6.31084C6.2398 195.096 6.17165 195.12 6.12141 195.165C6.07117 195.209 6.04295 195.268 6.04295 195.331C6.04295 195.393 6.07117 195.453 6.12141 195.497C6.17165 195.541 6.2398 195.566 6.31084 195.566ZM8.98816 195.566H10.0593C10.1303 195.566 10.1985 195.541 10.2487 195.497C10.2989 195.453 10.3272 195.393 10.3272 195.331C10.3272 195.268 10.2989 195.209 10.2487 195.165C10.1985 195.12 10.1303 195.096 10.0593 195.096H8.98816C8.91711 195.096 8.84897 195.12 8.79873 195.165C8.74849 195.209 8.72026 195.268 8.72026 195.331C8.72026 195.393 8.74849 195.453 8.79873 195.497C8.84897 195.541 8.91711 195.566 8.98816 195.566ZM11.6658 195.566H12.737C12.808 195.566 12.8762 195.541 12.9264 195.497C12.9766 195.453 13.0049 195.393 13.0049 195.331C13.0049 195.268 12.9766 195.209 12.9264 195.165C12.8762 195.12 12.808 195.096 12.737 195.096H11.6658C11.5948 195.096 11.5266 195.12 11.4764 195.165C11.4261 195.209 11.3979 195.268 11.3979 195.331C11.3979 195.393 11.4261 195.453 11.4764 195.497C11.5266 195.541 11.5948 195.566 11.6658 195.566ZM14.3435 195.566H15.4143C15.4853 195.566 15.5535 195.541 15.6037 195.497C15.6539 195.453 15.6822 195.393 15.6822 195.331C15.6822 195.268 15.6539 195.209 15.6037 195.165C15.5535 195.12 15.4853 195.096 15.4143 195.096H14.3435C14.2724 195.096 14.2043 195.12 14.1541 195.165C14.1038 195.209 14.0756 195.268 14.0756 195.331C14.0756 195.393 14.1038 195.453 14.1541 195.497C14.2043 195.541 14.2724 195.566 14.3435 195.566ZM17.0208 195.566H18.0919C18.163 195.566 18.2311 195.541 18.2814 195.497C18.3316 195.453 18.3598 195.393 18.3598 195.331C18.3598 195.268 18.3316 195.209 18.2814 195.165C18.2311 195.12 18.163 195.096 18.0919 195.096H17.0208C16.9497 195.096 16.8816 195.12 16.8314 195.165C16.7811 195.209 16.7529 195.268 16.7529 195.331C16.7529 195.393 16.7811 195.453 16.8314 195.497C16.8816 195.541 16.9497 195.566 17.0208 195.566ZM19.6985 195.566H20.7696C20.8407 195.566 20.9088 195.541 20.9591 195.497C21.0093 195.453 21.0375 195.393 21.0375 195.331C21.0375 195.268 21.0093 195.209 20.9591 195.165C20.9088 195.12 20.8407 195.096 20.7696 195.096H19.6985C19.6274 195.096 19.5593 195.12 19.509 195.165C19.4588 195.209 19.4306 195.268 19.4306 195.331C19.4306 195.393 19.4588 195.453 19.509 195.497C19.5593 195.541 19.6274 195.566 19.6985 195.566ZM22.3762 195.566H23.4469C23.518 195.566 23.5861 195.541 23.6363 195.497C23.6866 195.453 23.7148 195.393 23.7148 195.331C23.7148 195.268 23.6866 195.209 23.6363 195.165C23.5861 195.12 23.518 195.096 23.4469 195.096H22.3762C22.3051 195.096 22.237 195.12 22.1867 195.165C22.1365 195.209 22.1083 195.268 22.1083 195.331C22.1083 195.393 22.1365 195.453 22.1867 195.497C22.237 195.541 22.3051 195.566 22.3762 195.566ZM25.0534 195.566H26.1246C26.1956 195.566 26.2638 195.541 26.314 195.497C26.3643 195.453 26.3925 195.393 26.3925 195.331C26.3925 195.268 26.3643 195.209 26.314 195.165C26.2638 195.12 26.1956 195.096 26.1246 195.096H25.0534C24.9824 195.096 24.9142 195.12 24.864 195.165C24.8138 195.209 24.7856 195.268 24.7856 195.331C24.7856 195.393 24.8138 195.453 24.864 195.497C24.9142 195.541 24.9824 195.566 25.0534 195.566ZM27.7311 195.566H28.8023C28.8733 195.566 28.9415 195.541 28.9917 195.497C29.042 195.453 29.0702 195.393 29.0702 195.331C29.0702 195.268 29.042 195.209 28.9917 195.165C28.9415 195.12 28.8733 195.096 28.8023 195.096H27.7311C27.6601 195.096 27.5919 195.12 27.5417 195.165C27.4915 195.209 27.4632 195.268 27.4632 195.331C27.4632 195.393 27.4915 195.453 27.5417 195.497C27.5919 195.541 27.6601 195.566 27.7311 195.566ZM30.4088 195.566H31.4796C31.5506 195.566 31.6188 195.541 31.669 195.497C31.7192 195.453 31.7475 195.393 31.7475 195.331C31.7475 195.268 31.7192 195.209 31.669 195.165C31.6188 195.12 31.5506 195.096 31.4796 195.096H30.4088C30.3378 195.096 30.2696 195.12 30.2194 195.165C30.1692 195.209 30.1409 195.268 30.1409 195.331C30.1409 195.393 30.1692 195.453 30.2194 195.497C30.2696 195.541 30.3378 195.566 30.4088 195.566ZM33.0861 195.566H34.1573C34.2283 195.566 34.2964 195.541 34.3467 195.497C34.3969 195.453 34.4251 195.393 34.4251 195.331C34.4251 195.268 34.3969 195.209 34.3467 195.165C34.2964 195.12 34.2283 195.096 34.1573 195.096H33.0861C33.0151 195.096 32.9469 195.12 32.8967 195.165C32.8464 195.209 32.8182 195.268 32.8182 195.331C32.8182 195.393 32.8464 195.453 32.8967 195.497C32.9469 195.541 33.0151 195.566 33.0861 195.566ZM35.7638 195.566H36.8349C36.906 195.566 36.9741 195.541 37.0243 195.497C37.0746 195.453 37.1028 195.393 37.1028 195.331C37.1028 195.268 37.0746 195.209 37.0243 195.165C36.9741 195.12 36.906 195.096 36.8349 195.096H35.7638C35.6927 195.096 35.6246 195.12 35.5744 195.165C35.5241 195.209 35.4959 195.268 35.4959 195.331C35.4959 195.393 35.5241 195.453 35.5744 195.497C35.6246 195.541 35.6927 195.566 35.7638 195.566ZM38.4414 195.566H39.5122C39.5833 195.566 39.6514 195.541 39.7017 195.497C39.7519 195.453 39.7801 195.393 39.7801 195.331C39.7801 195.268 39.7519 195.209 39.7017 195.165C39.6514 195.12 39.5833 195.096 39.5122 195.096H38.4414C38.3704 195.096 38.3023 195.12 38.252 195.165C38.2018 195.209 38.1735 195.268 38.1735 195.331C38.1735 195.393 38.2018 195.453 38.252 195.497C38.3023 195.541 38.3704 195.566 38.4414 195.566ZM41.1188 195.566H42.1899C42.261 195.566 42.3291 195.541 42.3793 195.497C42.4296 195.453 42.4578 195.393 42.4578 195.331C42.4578 195.268 42.4296 195.209 42.3793 195.165C42.3291 195.12 42.261 195.096 42.1899 195.096H41.1188C41.0477 195.096 40.9796 195.12 40.9293 195.165C40.8791 195.209 40.8509 195.268 40.8509 195.331C40.8509 195.393 40.8791 195.453 40.9293 195.497C40.9796 195.541 41.0477 195.566 41.1188 195.566ZM43.7964 195.566H44.8676C44.9386 195.566 45.0068 195.541 45.057 195.497C45.1072 195.453 45.1355 195.393 45.1355 195.331C45.1355 195.268 45.1072 195.209 45.057 195.165C45.0068 195.12 44.9386 195.096 44.8676 195.096H43.7964C43.7254 195.096 43.6573 195.12 43.607 195.165C43.5568 195.209 43.5286 195.268 43.5286 195.331C43.5286 195.393 43.5568 195.453 43.607 195.497C43.6573 195.541 43.7254 195.566 43.7964 195.566ZM46.4741 195.566H47.5449C47.6159 195.566 47.6841 195.541 47.7343 195.497C47.7846 195.453 47.8128 195.393 47.8128 195.331C47.8128 195.268 47.7846 195.209 47.7343 195.165C47.6841 195.12 47.6159 195.096 47.5449 195.096H46.4741C46.403 195.096 46.3349 195.12 46.2847 195.165C46.2344 195.209 46.2062 195.268 46.2062 195.331C46.2062 195.393 46.2344 195.453 46.2847 195.497C46.3349 195.541 46.403 195.566 46.4741 195.566ZM49.1518 195.566H50.2226C50.2936 195.566 50.3618 195.541 50.412 195.497C50.4622 195.453 50.4905 195.393 50.4905 195.331C50.4905 195.268 50.4622 195.209 50.412 195.165C50.3618 195.12 50.2936 195.096 50.2226 195.096H49.1518C49.0808 195.096 49.0126 195.12 48.9624 195.165C48.9121 195.209 48.8839 195.268 48.8839 195.331C48.8839 195.393 48.9121 195.453 48.9624 195.497C49.0126 195.541 49.0808 195.566 49.1518 195.566ZM51.8291 195.566H52.9002C52.9713 195.566 53.0394 195.541 53.0897 195.497C53.1399 195.453 53.1681 195.393 53.1681 195.331C53.1681 195.268 53.1399 195.209 53.0897 195.165C53.0394 195.12 52.9713 195.096 52.9002 195.096H51.8291C51.7581 195.096 51.6899 195.12 51.6397 195.165C51.5894 195.209 51.5612 195.268 51.5612 195.331C51.5612 195.393 51.5894 195.453 51.6397 195.497C51.6899 195.541 51.7581 195.566 51.8291 195.566ZM54.5068 195.566H55.5779C55.649 195.566 55.7171 195.541 55.7673 195.497C55.8176 195.453 55.8458 195.393 55.8458 195.331C55.8458 195.268 55.8176 195.209 55.7673 195.165C55.7171 195.12 55.649 195.096 55.5779 195.096H54.5068C54.4357 195.096 54.3676 195.12 54.3173 195.165C54.2671 195.209 54.2389 195.268 54.2389 195.331C54.2389 195.393 54.2671 195.453 54.3173 195.497C54.3676 195.541 54.4357 195.566 54.5068 195.566ZM57.1845 195.566H58.2552C58.3263 195.566 58.3944 195.541 58.4447 195.497C58.4949 195.453 58.5231 195.393 58.5231 195.331C58.5231 195.268 58.4949 195.209 58.4447 195.165C58.3944 195.12 58.3263 195.096 58.2552 195.096H57.1845C57.1134 195.096 57.0453 195.12 56.995 195.165C56.9448 195.209 56.9166 195.268 56.9166 195.331C56.9166 195.393 56.9448 195.453 56.995 195.497C57.0453 195.541 57.1134 195.566 57.1845 195.566ZM59.8618 195.566H60.9329C61.0039 195.566 61.0721 195.541 61.1223 195.497C61.1726 195.453 61.2008 195.393 61.2008 195.331C61.2008 195.268 61.1726 195.209 61.1223 195.165C61.0721 195.12 61.0039 195.096 60.9329 195.096H59.8618C59.7907 195.096 59.7226 195.12 59.6723 195.165C59.6221 195.209 59.5939 195.268 59.5939 195.331C59.5939 195.393 59.6221 195.453 59.6723 195.497C59.7226 195.541 59.7907 195.566 59.8618 195.566ZM62.5394 195.566H63.6106C63.6816 195.566 63.7498 195.541 63.8 195.497C63.8502 195.453 63.8785 195.393 63.8785 195.331C63.8785 195.268 63.8502 195.209 63.8 195.165C63.7498 195.12 63.6816 195.096 63.6106 195.096H62.5394C62.4684 195.096 62.4002 195.12 62.35 195.165C62.2998 195.209 62.2715 195.268 62.2715 195.331C62.2715 195.393 62.2998 195.453 62.35 195.497C62.4002 195.541 62.4684 195.566 62.5394 195.566ZM65.2171 195.566H66.2879C66.3589 195.566 66.4271 195.541 66.4773 195.497C66.5275 195.453 66.5558 195.393 66.5558 195.331C66.5558 195.268 66.5275 195.209 66.4773 195.165C66.4271 195.12 66.3589 195.096 66.2879 195.096H65.2171C65.1461 195.096 65.0779 195.12 65.0277 195.165C64.9774 195.209 64.9492 195.268 64.9492 195.331C64.9492 195.393 64.9774 195.453 65.0277 195.497C65.0779 195.541 65.1461 195.566 65.2171 195.566ZM67.8944 195.566H68.9656C69.0366 195.566 69.1047 195.541 69.155 195.497C69.2052 195.453 69.2334 195.393 69.2334 195.331C69.2334 195.268 69.2052 195.209 69.155 195.165C69.1047 195.12 69.0366 195.096 68.9656 195.096H67.8944C67.8233 195.096 67.7552 195.12 67.705 195.165C67.6547 195.209 67.6265 195.268 67.6265 195.331C67.6265 195.393 67.6547 195.453 67.705 195.497C67.7552 195.541 67.8233 195.566 67.8944 195.566ZM70.5721 195.566H71.6432C71.7143 195.566 71.7824 195.541 71.8327 195.497C71.8829 195.453 71.9111 195.393 71.9111 195.331C71.9111 195.268 71.8829 195.209 71.8327 195.165C71.7824 195.12 71.7143 195.096 71.6432 195.096H70.5721C70.501 195.096 70.4329 195.12 70.3827 195.165C70.3324 195.209 70.3042 195.268 70.3042 195.331C70.3042 195.393 70.3324 195.453 70.3827 195.497C70.4329 195.541 70.501 195.566 70.5721 195.566Z" fill="#AB820F"/>
<path fill-rule="evenodd" clip-rule="evenodd" d="M55.5127 186.203C55.1835 187.03 52.0125 182.082 52.0125 182.082L46.6347 183.833C46.6347 183.833 48.1449 190.777 55.5127 186.203Z" fill="#FFCC9C"/>
<path fill-rule="evenodd" clip-rule="evenodd" d="M63.9013 185.605L58.7621 188.453L73.6289 193.067L63.5614 188.091L63.9013 185.605Z" fill="#FF8A4F"/>
<path fill-rule="evenodd" clip-rule="evenodd" d="M51.4883 212.147L48.5408 208.369L44.4037 209.662L47.8042 213.788L51.4883 212.147Z" fill="#FEB978"/>
<path fill-rule="evenodd" clip-rule="evenodd" d="M39.4167 207.125L41.1738 211.152L36.7531 212.543L34.403 207.616C34.403 207.616 38.6799 206.424 39.4167 207.125Z" fill="#FEB978"/>
<path fill-rule="evenodd" clip-rule="evenodd" d="M37.3091 170.597C36.1959 171.597 35.6085 173.749 34.227 173.944L32.8456 174.14L33.0035 176.069L34.7513 176.199C34.7513 176.199 34.7805 178.906 35.4458 179.099C36.111 179.293 36.1767 177.696 36.1767 177.696C36.1767 177.696 37.4109 181.105 38.081 181.175C38.7514 181.245 38.5821 179.223 38.5821 179.223C38.5821 179.223 42.1973 182.019 43.1475 182.098C44.0979 182.177 41.4077 179.386 41.4077 179.386C41.4077 179.386 47.8195 181.015 48.1747 180.559C48.5301 180.103 43.574 177.855 43.574 177.855C43.574 177.855 50.7632 179.111 51.2015 178.564C51.8273 177.782 45.217 176.277 43.7673 173.652C42.4855 171.332 38.4223 169.598 37.3091 170.597Z" fill="#9EB4B5"/>
<path fill-rule="evenodd" clip-rule="evenodd" d="M37.8385 172.049C37.8385 172.049 38.6985 173.65 40.1789 173.795C40.5739 173.851 40.9786 173.784 41.3236 173.606C41.6686 173.429 41.9324 173.151 42.0699 172.822C42.8809 173.929 43.9034 174.906 45.0926 175.709C46.8426 176.798 47.8056 176.914 48.0732 177.23C48.3407 177.546 46.9648 177.921 45.0594 177.541C43.1539 177.161 41.7965 175.728 41.7965 175.728C41.7965 175.728 41.9987 176.264 41.4511 176.283C41.314 176.299 41.1747 176.29 41.0413 176.259C40.9078 176.227 40.7828 176.173 40.6733 176.099C41.169 176.689 41.7506 177.22 42.4035 177.678C43.3861 178.337 43.9362 178.6 43.6185 178.824C43.3008 179.048 42.0079 178.773 41.0353 178.213C40.0627 177.654 39.3277 176.425 39.3277 176.425C39.3277 176.425 39.4601 177.303 39.1398 177.243C38.9151 177.186 38.7116 177.078 38.5499 176.93C38.5499 176.93 38.8638 179.522 38.0539 179.448C37.2436 179.373 36.8064 177.379 36.7917 176.714C36.7769 176.049 36.0689 176.901 35.8364 176.413C35.7793 176.244 35.7673 176.066 35.8012 175.892C35.8351 175.718 35.914 175.554 36.0319 175.411C36.0319 175.411 34.7508 176.207 33.8771 176.142C33.003 176.077 32.7971 177.877 32.7971 177.877C32.7971 177.877 33.0192 175.132 32.9543 174.908C32.889 174.683 34.9467 174.516 35.5095 173.783C36.0725 173.051 36.906 171.539 37.2835 171.219C37.4953 171.032 37.7713 170.911 38.0691 170.875C38.0691 170.875 37.6735 171.625 37.8385 172.049Z" fill="#8BA2A3"/>
<path fill-rule="evenodd" clip-rule="evenodd" d="M16.291 166.135C16.8962 167.427 16.5211 169.615 17.7182 170.251L18.915 170.886L17.9442 172.623L16.268 172.169C16.268 172.169 15.0841 174.669 14.3847 174.63C13.6856 174.59 14.3075 173.088 14.3075 173.088C14.3075 173.088 11.7062 175.842 11.0547 175.688C10.4031 175.532 11.4248 173.713 11.4248 173.713C11.4248 173.713 6.87822 175.116 5.96316 174.877C5.04852 174.638 8.73528 172.935 8.73528 172.935C8.73528 172.935 2.09481 172.337 1.96016 171.798C1.82582 171.258 7.38083 170.804 7.38083 170.804C7.38083 170.804 0.179354 169.604 0.0067482 168.952C-0.239038 168.022 6.53268 168.8 8.99809 166.844C11.1776 165.114 15.6858 164.842 16.291 166.135Z" fill="#9EB4B5"/>
<path fill-rule="evenodd" clip-rule="evenodd" d="M15.1853 167.297C15.1853 167.297 13.7039 168.499 12.2692 168.146C11.8793 168.068 11.5327 167.873 11.2888 167.595C11.0449 167.317 10.9189 166.973 10.9323 166.622C9.70696 167.382 8.34159 167.952 6.89602 168.305C4.8081 168.739 3.8655 168.53 3.48262 168.735C3.09972 168.94 4.21475 169.74 6.14391 170.014C8.07276 170.289 9.9437 169.407 9.9437 169.407C9.9437 169.407 9.52739 169.836 10.0267 170.035C10.1471 170.094 10.2797 170.132 10.4169 170.147C10.5541 170.161 10.6933 170.152 10.8264 170.119C10.1145 170.504 9.34827 170.805 8.54728 171.015C7.35476 171.302 6.73258 171.366 6.9316 171.678C7.13027 171.989 8.44646 172.16 9.58698 171.961C10.7278 171.762 11.9345 170.864 11.9345 170.864C11.9345 170.864 11.4366 171.635 11.7589 171.685C11.9917 171.706 12.2267 171.672 12.44 171.588C12.44 171.588 11.0406 173.888 11.8237 174.085C12.6068 174.282 13.8641 172.578 14.162 171.966C14.4598 171.355 14.7526 172.377 15.1762 172.002C15.3013 171.863 15.3887 171.702 15.4315 171.53C15.4744 171.358 15.4716 171.179 15.4233 171.008C15.4233 171.008 16.2706 172.167 17.1089 172.394C17.9468 172.621 17.3684 174.358 17.3684 174.358C17.3684 174.358 18.3352 171.74 18.4915 171.553C18.6479 171.367 16.8118 170.535 16.6031 169.67C16.3944 168.806 16.2676 167.131 16.0541 166.71C15.9378 166.467 15.7337 166.264 15.4731 166.133C15.4731 166.133 15.5193 166.958 15.1853 167.297Z" fill="#8BA2A3"/>
<path fill-rule="evenodd" clip-rule="evenodd" d="M41.6035 161.643L26.7165 156.146C17.5527 167.597 13.0982 179.386 19.3187 192.772L35.8275 189.279C35.8275 189.279 28.5948 175.904 41.6035 161.643Z" fill="#B7EBB7"/>
<path fill-rule="evenodd" clip-rule="evenodd" d="M37.9731 162.713C28.5755 173.475 31.9558 185.225 32.8346 187.732L21.0757 189.986C19.1471 185.078 18.6176 179.831 19.5336 174.702C20.8406 167.818 26.1294 160.647 27.2923 159.134L35.8432 161.999L37.9731 162.713ZM27.2823 158.162L26.9051 158.035L26.6748 158.325C26.6557 158.349 20.0246 166.614 18.5167 174.555C17.542 179.974 18.147 185.522 20.2754 190.681L20.4392 191.035L20.8642 190.953L33.6155 188.509L34.1876 188.399L33.9906 187.915C33.9749 187.877 28.417 174.625 39.2107 162.792L39.6533 162.307L38.9942 162.086L36.214 161.155L27.2823 158.162Z" fill="#8BBB8B"/>
<path fill-rule="evenodd" clip-rule="evenodd" d="M32.9287 175.497C32.5244 177.55 29.0847 178.86 25.2461 178.421C21.4072 177.982 18.6233 175.961 19.0276 173.907C19.4322 171.853 22.8716 170.544 26.7105 170.983C30.549 171.422 33.3332 173.443 32.9287 175.497Z" fill="#8BBB8B"/>
<path fill-rule="evenodd" clip-rule="evenodd" d="M31.8405 166.557C31.4439 167.431 30.1933 167.928 29.0475 167.667C27.9016 167.407 27.2947 166.487 27.6912 165.613C28.0879 164.739 29.3384 164.242 30.4841 164.503C31.63 164.764 32.2372 165.683 31.8405 166.557Z" fill="#92D192"/>
<path fill-rule="evenodd" clip-rule="evenodd" d="M27.0505 184.784C26.0325 185.366 24.6154 185.324 23.8857 184.691C23.1557 184.057 23.3892 183.071 24.4073 182.489C25.4254 181.907 26.8422 181.948 27.5721 182.582C28.302 183.216 28.0683 184.201 27.0505 184.784Z" fill="#92D192"/>
<path fill-rule="evenodd" clip-rule="evenodd" d="M36.0291 161.584L38.6494 162.692L37.1055 164.565C36.6782 165.084 35.0057 163.175 36.0291 161.584Z" fill="#8BBB8B"/>
<path fill-rule="evenodd" clip-rule="evenodd" d="M20.1021 187.695L20.9897 190.471L23.6197 189.779C24.3478 189.587 22.2819 187.367 20.1021 187.695Z" fill="#8BBB8B"/>
<path fill-rule="evenodd" clip-rule="evenodd" d="M32.6157 185.291L33.1201 188.14L30.3997 188.467C29.6464 188.557 30.4768 185.785 32.6157 185.291Z" fill="#8BBB8B"/>
<path fill-rule="evenodd" clip-rule="evenodd" d="M29.5547 159.909L26.93 158.809L25.7124 161.142C25.4088 161.724 28.7795 161.604 29.5547 159.909Z" fill="#8BBB8B"/>
<path d="M28.612 173.179C25.8717 172.82 25.3353 175.391 23.3623 175.132C22.6772 175.042 22.4756 174.745 22.5473 174.325C22.6191 173.904 22.9108 173.672 23.5959 173.762L24.3494 173.861L24.5624 172.611L23.9048 172.525C22.6032 172.354 21.6854 172.725 21.3044 173.646L20.6056 173.554L20.4212 174.636L21.12 174.727C21.1794 175.694 21.9312 176.296 23.2328 176.467C25.9731 176.826 26.5095 174.255 28.4825 174.514C29.1676 174.603 29.3869 174.878 29.3152 175.298C29.2435 175.719 28.9422 175.925 28.2571 175.835L27.8598 175.783L27.6467 177.033L27.9482 177.073C29.2498 177.243 30.1538 176.871 30.5328 175.962L31.2453 176.055L31.4297 174.974L30.7173 174.88C30.6421 173.924 29.8999 173.348 28.612 173.179Z" fill="#C9F5C9"/>
<path fill-rule="evenodd" clip-rule="evenodd" d="M34.945 92.4025C34.6063 93.7678 35.4106 95.865 34.3581 96.6738L33.3056 97.4826L34.6069 99.0442L36.1671 98.341C36.1671 98.341 37.8299 100.622 38.5106 100.476C39.1913 100.33 38.2807 98.9457 38.2807 98.9457C38.2807 98.9457 41.3897 101.26 42.0001 101.008C42.6108 100.755 41.2435 99.1203 41.2435 99.1203C41.2435 99.1203 45.9991 99.8065 46.8522 99.4311C47.7057 99.0557 43.7369 97.943 43.7369 97.943C43.7369 97.943 50.1568 96.3387 50.1819 95.7866C50.2071 95.2346 44.6465 95.6371 44.6465 95.6371C44.6465 95.6371 51.4991 93.354 51.5397 92.6864C51.5971 91.7327 45.0837 93.5341 42.2671 91.9851C39.7768 90.6155 35.2838 91.0375 34.945 92.4025Z" fill="#9EB4B5"/>
<path fill-rule="evenodd" clip-rule="evenodd" d="M36.2659 93.3772C36.2659 93.3772 37.964 94.3343 39.3064 93.768C39.6747 93.631 39.9772 93.3859 40.1621 93.0748C40.3471 92.7636 40.4029 92.4058 40.32 92.0625C41.6776 92.6237 43.1353 92.9755 44.6291 93.1025C46.7709 93.2102 47.6576 92.8606 48.0756 93.0041C48.4935 93.1472 47.5542 94.1054 45.7094 94.6705C43.8644 95.2352 41.8471 94.6532 41.8471 94.6532C41.8471 94.6532 42.3424 95.0128 41.8901 95.2842C41.7834 95.3612 41.6603 95.4191 41.528 95.4544C41.3958 95.4897 41.2569 95.5018 41.1193 95.4899C41.8967 95.7596 42.711 95.9389 43.5415 96.0233C44.7728 96.124 45.3985 96.0912 45.2644 96.4283C45.1306 96.766 43.8688 97.1353 42.7057 97.1136C41.5427 97.0922 40.1764 96.3932 40.1764 96.3932C40.1764 96.3932 40.8196 97.0751 40.5123 97.174C40.2873 97.2302 40.0494 97.2333 39.8225 97.1829C39.8225 97.1829 41.6576 99.2341 40.9259 99.5478C40.1939 99.8616 38.6168 98.3753 38.202 97.8188C37.7872 97.2622 37.7022 98.3133 37.2103 98.0084C37.0596 97.8917 36.9415 97.7462 36.8651 97.5832C36.7887 97.4201 36.7559 97.2438 36.7694 97.0679C36.7694 97.0679 36.1655 98.3391 35.3854 98.6904C34.6053 99.0423 35.5201 100.664 35.5201 100.664C35.5201 100.664 34.0475 98.2343 33.8566 98.0742C33.6655 97.9145 35.3081 96.8144 35.3418 95.9317C35.3756 95.0486 35.1676 93.3799 35.2938 92.9329C35.3601 92.6756 35.5208 92.4446 35.7512 92.2753C35.7512 92.2753 35.8699 93.0953 36.2659 93.3772Z" fill="#8BA2A3"/>
<path fill-rule="evenodd" clip-rule="evenodd" d="M14.4308 98.4035C15.7259 99.2171 16.7319 101.246 18.1311 101.227L19.5298 101.208L19.7578 103.132L18.0628 103.528C18.0628 103.528 18.5724 106.198 17.9557 106.49C17.339 106.782 16.9573 105.22 16.9573 105.22C16.9573 105.22 16.4194 108.765 15.7735 108.937C15.1274 109.109 14.8924 107.091 14.8924 107.091C14.8924 107.091 11.8882 110.397 10.9679 110.621C10.0481 110.844 12.1421 107.684 12.1421 107.684C12.1421 107.684 6.15259 110.269 5.71185 109.874C5.27136 109.48 9.70453 106.509 9.70453 106.509C9.70453 106.509 2.87512 108.844 2.33456 108.372C1.56341 107.699 7.77306 105.205 8.67886 102.399C9.47942 99.9189 13.1357 97.5898 14.4308 98.4035Z" fill="#9EB4B5"/>
<path fill-rule="evenodd" clip-rule="evenodd" d="M14.1963 99.9083C14.1963 99.9083 13.6683 101.617 12.239 101.986C11.8611 102.101 11.4493 102.097 11.0744 101.975C10.6994 101.853 10.3845 101.62 10.1837 101.317C9.6051 102.531 8.79248 103.65 7.78139 104.622C6.27418 105.962 5.34901 106.224 5.14863 106.576C4.94821 106.928 6.37702 107.086 8.17796 106.421C9.97886 105.755 11.0307 104.137 11.0307 104.137C11.0307 104.137 10.938 104.695 11.4811 104.63C11.6191 104.625 11.7546 104.595 11.8797 104.544C12.0048 104.492 12.1171 104.42 12.2102 104.33C11.8395 104.987 11.3723 105.599 10.8206 106.15C9.9838 106.949 9.4948 107.292 9.85214 107.464C10.2091 107.635 11.4278 107.167 12.2741 106.468C13.1205 105.768 13.6 104.445 13.6 104.445C13.6 104.445 13.6442 105.33 13.9477 105.222C14.1576 105.132 14.3365 104.994 14.4663 104.823C14.4663 104.823 14.6723 107.424 15.4554 107.227C16.2382 107.029 16.2721 104.999 16.1546 104.342C16.0371 103.685 16.9036 104.415 17.0356 103.9C17.0581 103.725 17.0345 103.547 16.9665 103.381C16.8986 103.215 16.7881 103.065 16.6436 102.943C16.6436 102.943 18.0632 103.531 18.911 103.333C19.7583 103.135 20.3193 104.876 20.3193 104.876C20.3193 104.876 19.5545 102.208 19.5742 101.977C19.5937 101.746 17.5342 101.895 16.8344 101.26C16.1345 100.625 15.0134 99.2641 14.5778 99.0069C14.3321 98.8551 14.0363 98.7781 13.7359 98.7879C13.7359 98.7879 14.2746 99.466 14.1963 99.9083Z" fill="#8BA2A3"/>
<path fill-rule="evenodd" clip-rule="evenodd" d="M33.1602 82.8105L17.2171 85.0829C16.3798 99.0538 19.7383 111.119 33.1101 119.567L44.9883 108.922C44.9883 108.922 30.7649 100.953 33.1602 82.8105Z" fill="#B7EBB7"/>
<path fill-rule="evenodd" clip-rule="evenodd" d="M30.7321 85.4152C29.2801 98.9115 39.2551 107.296 41.5171 109.012L32.9152 116.397C28.3108 113.135 24.6868 108.934 22.3595 104.161C19.3017 97.7184 19.4444 89.1783 19.5142 87.3544L28.4952 85.802L30.7321 85.4152ZM18.9177 86.5354L18.5213 86.6037L18.5015 86.9564C18.4999 86.9857 17.8814 97.0777 21.4084 104.509C23.8618 109.556 27.7316 113.976 32.6574 117.358L33.0103 117.582L33.3212 117.315L42.6489 109.307L43.0674 108.947L42.6074 108.629C42.571 108.603 29.8416 99.9599 31.829 84.9062L31.9106 84.2891L31.2184 84.4087L28.2985 84.9137L18.9177 86.5354Z" fill="#8BBB8B"/>
<path fill-rule="evenodd" clip-rule="evenodd" d="M34.1985 98.5977C35.0987 100.527 32.9758 103.238 29.4569 104.653C25.9378 106.068 22.3556 105.652 21.4554 103.723C20.5556 101.794 22.6782 99.0828 26.1974 97.6675C29.7162 96.2525 33.2984 96.6687 34.1985 98.5977Z" fill="#8BBB8B"/>
<path fill-rule="evenodd" clip-rule="evenodd" d="M27.8598 91.5172C28.0524 92.4423 27.2933 93.4459 26.1645 93.7585C25.0357 94.071 23.9647 93.5741 23.7721 92.6489C23.5795 91.7239 24.3385 90.7202 25.4674 90.408C26.5962 90.0954 27.6672 90.5919 27.8598 91.5172Z" fill="#92D192"/>
<path fill-rule="evenodd" clip-rule="evenodd" d="M34.8295 109.194C34.319 110.161 33.0928 110.786 32.091 110.588C31.0888 110.391 30.6903 109.447 31.2009 108.48C31.7113 107.512 32.9374 106.888 33.9394 107.085C34.9414 107.282 35.3399 108.227 34.8295 109.194Z" fill="#92D192"/>
<path fill-rule="evenodd" clip-rule="evenodd" d="M28.3986 85.3567L31.29 85.0762L31.1148 87.3821C31.0664 88.0205 28.4941 87.1816 28.3986 85.3567Z" fill="#8BBB8B"/>
<path fill-rule="evenodd" clip-rule="evenodd" d="M30.7027 114.902L33.1349 116.841L34.9448 115.03C35.4459 114.529 32.3516 113.609 30.7027 114.902Z" fill="#8BBB8B"/>
<path fill-rule="evenodd" clip-rule="evenodd" d="M39.8531 107.039L42.0049 109.219L39.8966 110.762C39.3129 111.189 38.3394 108.454 39.8531 107.039Z" fill="#8BBB8B"/>
<path fill-rule="evenodd" clip-rule="evenodd" d="M21.8951 86.9512L19.005 87.2408L19.3848 89.785C19.4797 90.4196 22.264 88.749 21.8951 86.9512Z" fill="#8BBB8B"/>
<path d="M29.1312 98.6397C26.5913 99.6109 27.6926 102.04 25.8639 102.739C25.2288 102.982 24.8784 102.824 24.6847 102.434C24.4909 102.044 24.5977 101.712 25.2328 101.469L25.9312 101.202L25.3554 100.044L24.7458 100.277C23.5394 100.738 22.9862 101.48 23.2204 102.437L22.5727 102.685L23.0709 103.688L23.7185 103.44C24.3536 104.231 25.3553 104.392 26.5616 103.93C29.1016 102.959 28.0003 100.53 29.829 99.8311C30.464 99.5883 30.8159 99.7187 31.0097 100.109C31.2034 100.498 31.0729 100.814 30.4379 101.056L30.0697 101.197L30.6454 102.356L30.9249 102.249C32.1313 101.788 32.6718 101.051 32.4431 100.104L33.1035 99.8515L32.6053 98.849L31.945 99.1015C31.3028 98.3263 30.3249 98.1833 29.1312 98.6397Z" fill="#C9F5C9"/>
<path fill-rule="evenodd" clip-rule="evenodd" d="M82.0265 41.5351C80.4993 41.9323 78.7912 43.5607 77.4762 43.1411L76.1612 42.7216L75.2277 44.474L76.6818 45.3346C76.6818 45.3346 75.2039 47.7112 75.6776 48.1642C76.1513 48.6172 77.0955 47.2506 77.0955 47.2506C77.0955 47.2506 76.2801 50.7554 76.8263 51.103C77.3728 51.4508 78.3481 49.6122 78.3481 49.6122C78.3481 49.6122 79.9529 53.5984 80.7388 54.0733C81.5249 54.5486 80.7252 50.9619 80.7252 50.9619C80.7252 50.9619 85.4201 55.1242 85.9838 54.8775C86.5474 54.6311 83.4672 50.5505 83.4672 50.5505C83.4672 50.5505 89.0487 54.7186 89.7352 54.4281C90.7158 54.0129 85.7789 49.8738 85.9701 46.9626C86.1391 44.3886 83.5536 41.1382 82.0265 41.5351Z" fill="#9EB4B5"/>
<path fill-rule="evenodd" clip-rule="evenodd" d="M81.6886 43.0219C81.6886 43.0219 81.5502 44.7882 82.7625 45.5473C83.0768 45.7645 83.4673 45.879 83.8673 45.8713C84.2672 45.8636 84.6516 45.7341 84.9547 45.5051C85.0478 46.819 85.3984 48.1089 85.9909 49.3184C86.9149 51.0166 87.6912 51.5299 87.7492 51.9203C87.8075 52.3105 86.3977 52.0499 84.9446 50.904C83.4918 49.7577 83.1017 47.9267 83.1017 47.9267C83.1017 47.9267 82.981 48.4806 82.492 48.2637C82.3636 48.2187 82.2466 48.152 82.1476 48.0673C82.0486 47.9826 81.9696 47.8817 81.9152 47.7702C82.0201 48.4977 82.2332 49.21 82.5489 49.889C83.0413 50.8841 83.3754 51.3492 82.974 51.4085C82.5722 51.4684 81.5954 50.6763 81.0569 49.7717C80.5183 48.8674 80.5586 47.4805 80.5586 47.4805C80.5586 47.4805 80.187 48.3033 79.9402 48.1148C79.7757 47.9689 79.658 47.7874 79.5991 47.5888C79.5991 47.5888 78.4335 49.9873 77.7677 49.5759C77.1015 49.1644 77.827 47.2362 78.1833 46.6494C78.5396 46.0625 77.4485 46.5033 77.5162 45.9783C77.5602 45.8063 77.6487 45.6455 77.7748 45.5082C77.9009 45.3709 78.0613 45.2608 78.2436 45.1865C78.2436 45.1865 76.6826 45.3345 75.9559 44.9041C75.2286 44.4738 74.0491 45.9579 74.0491 45.9579C74.0491 45.9579 75.7672 43.656 75.8353 43.432C75.9027 43.2082 77.793 43.9411 78.6912 43.5418C79.5898 43.1425 81.157 42.1789 81.6644 42.0607C81.9532 41.9877 82.2615 42 82.5417 42.0956C82.5417 42.0956 81.7796 42.5817 81.6886 43.0219Z" fill="#8BA2A3"/>
<path fill-rule="evenodd" clip-rule="evenodd" d="M66.1509 28.6546C65.9616 30.042 64.419 31.7924 65.1115 32.8591L65.8041 33.9251L63.9918 35.0269L62.7798 33.9146C62.7798 33.9146 60.3574 35.5924 59.7686 35.259C59.1802 34.9255 60.5574 33.8795 60.5574 33.8795C60.5574 33.8795 56.7558 35.1737 56.2728 34.76C55.79 34.3461 57.6927 33.1937 57.6927 33.1937C57.6927 33.1937 52.9427 32.4766 52.2763 31.8767C51.6103 31.2772 55.7759 31.365 55.7759 31.365C55.7759 31.365 50.3084 28.0059 50.4905 27.477C50.6729 26.9482 55.7765 28.9251 55.7765 28.9251C55.7765 28.9251 50.1535 24.8003 50.3646 24.1575C50.6665 23.2401 56.1487 26.8125 59.3881 26.1576C62.252 25.5783 66.3402 27.2671 66.1509 28.6546Z" fill="#9EB4B5"/>
<path fill-rule="evenodd" clip-rule="evenodd" d="M64.537 29.1952C64.537 29.1952 62.5756 29.6122 61.5183 28.6913C61.2215 28.4562 61.0271 28.1378 60.9685 27.7907C60.9099 27.4436 60.9908 27.0895 61.1973 26.789C59.705 26.9292 58.1964 26.8431 56.7375 26.5344C54.6733 26.0209 53.9659 25.436 53.5177 25.4515C53.0694 25.467 53.5992 26.6416 55.1317 27.7054C56.6637 28.7693 58.7875 28.7983 58.7875 28.7983C58.7875 28.7983 58.1853 28.9958 58.5113 29.3822C58.5834 29.4857 58.678 29.5757 58.7897 29.647C58.9015 29.7183 59.0282 29.7697 59.1625 29.798C58.3273 29.8297 57.4909 29.7653 56.6748 29.6065C55.4737 29.3479 54.8951 29.1374 54.8959 29.4947C54.8962 29.8518 55.951 30.5632 57.0575 30.8766C58.1645 31.1902 59.7167 30.922 59.7167 30.922C59.7167 30.922 58.8541 31.382 59.1078 31.5634C59.2995 31.6811 59.5233 31.7523 59.7565 31.7698C59.7565 31.7698 57.2567 33.181 57.8311 33.6878C58.4056 34.1944 60.4504 33.2427 61.0501 32.836C61.6497 32.4293 61.338 33.4469 61.9162 33.3002C62.1022 33.2331 62.2681 33.1295 62.4012 32.9973C62.5343 32.8652 62.631 32.708 62.684 32.5378C62.684 32.5378 62.7801 33.9123 63.3862 34.4687C63.9922 35.0246 62.5223 36.2947 62.5223 36.2947C62.5223 36.2947 64.8204 34.4214 65.0606 34.3253C65.3008 34.2291 64.1593 32.718 64.457 31.8741C64.7546 31.0302 65.5742 29.513 65.6214 29.0543C65.6548 28.7923 65.5892 28.5279 65.4347 28.3017C65.4347 28.3017 65.0166 29.0424 64.537 29.1952Z" fill="#8BA2A3"/>
<path fill-rule="evenodd" clip-rule="evenodd" d="M90.752 35.536L80.803 24.375C66.4409 30.46 56.0038 38.8525 54.0028 53.2004L70.3599 57.204C70.3599 57.204 71.4711 42.4328 90.752 35.536Z" fill="#B7EBB7"/>
<path fill-rule="evenodd" clip-rule="evenodd" d="M86.983 34.9234C72.799 40.3074 69.2258 52.0134 68.6011 54.5785L57.0798 51.5229C58.121 46.4126 60.5727 41.6036 64.2208 37.5158C69.1852 32.0623 77.7867 28.0589 79.6426 27.2342L85.5192 33.3902L86.983 34.9234ZM80.1737 26.3812L79.9146 26.1094L79.5526 26.264C79.5225 26.2769 69.1413 30.662 63.4148 36.9525C59.5538 41.269 57.0013 46.3726 55.9951 51.7876L55.9416 52.1667L56.358 52.2771L68.8516 55.5905L69.4123 55.7391L69.509 55.2321C69.5167 55.1919 72.022 41.2439 88.0199 35.5215L88.6758 35.2869L88.2228 34.8124L86.312 32.8111L80.1737 26.3812Z" fill="#8BBB8B"/>
<path fill-rule="evenodd" clip-rule="evenodd" d="M75.4811 43.9362C73.9874 45.5572 70.2562 45.231 67.1476 43.2076C64.0386 41.1841 62.7295 38.2298 64.2232 36.6088C65.7172 34.9881 69.4479 35.3142 72.5569 37.3377C75.6654 39.3611 76.9749 42.3153 75.4811 43.9362Z" fill="#8BBB8B"/>
<path fill-rule="evenodd" clip-rule="evenodd" d="M79.4991 35.6562C78.6676 36.2498 77.2993 36.1496 76.4434 35.4325C75.5874 34.7153 75.5681 33.6526 76.3997 33.059C77.2312 32.4655 78.5996 32.5656 79.4552 33.2829C80.3112 34.0001 80.331 35.0625 79.4991 35.6562Z" fill="#92D192"/>
<path fill-rule="evenodd" clip-rule="evenodd" d="M65.19 49.5277C63.9777 49.6011 62.7631 48.9594 62.4776 48.0943C62.1922 47.2287 62.9435 46.4678 64.1558 46.3944C65.3684 46.3208 66.5825 46.9626 66.8681 47.8278C67.1537 48.6931 66.4022 49.4542 65.19 49.5277Z" fill="#92D192"/>
<path fill-rule="evenodd" clip-rule="evenodd" d="M85.9159 33.0977L87.5889 35.1851L85.2005 36.1611C84.5393 36.4313 84.1386 34.05 85.9159 33.0977Z" fill="#8BBB8B"/>
<path fill-rule="evenodd" clip-rule="evenodd" d="M57.5044 49.1016L56.738 51.9053L59.4193 52.4243C60.1616 52.568 59.5904 49.7464 57.5044 49.1016Z" fill="#8BBB8B"/>
<path fill-rule="evenodd" clip-rule="evenodd" d="M69.7705 52.3462L68.6286 55.0502L66.0716 54.1727C65.3636 53.9297 67.6281 51.8639 69.7705 52.3462Z" fill="#8BBB8B"/>
<path fill-rule="evenodd" clip-rule="evenodd" d="M81.1924 28.8712L79.511 26.7891L77.152 28.3063C76.5637 28.6849 79.5738 30.0207 81.1924 28.8712Z" fill="#8BBB8B"/>
<path d="M72.9988 40.0586C70.8052 38.574 68.9088 40.5904 67.3294 39.5214C66.7809 39.1502 66.7698 38.8049 67.066 38.4681C67.3622 38.1314 67.7458 38.0534 68.2943 38.4247L68.8975 38.8329L69.7776 37.8324L69.2512 37.476C68.2093 36.7708 67.2016 36.7028 66.3575 37.3441L65.7982 36.9655L65.0365 37.8313L65.5958 38.2098C65.1112 39.0791 65.4333 39.9264 66.4752 40.6315C68.6688 42.1163 70.5652 40.0998 72.1446 41.1688C72.693 41.54 72.7321 41.8734 72.436 42.2101C72.1397 42.5468 71.762 42.5982 71.2136 42.2271L70.8956 42.0118L70.0154 43.0123L70.2567 43.1757C71.2986 43.8809 72.2952 43.9415 73.1309 43.3098L73.7012 43.6958L74.4629 42.83L73.8926 42.444C74.3578 41.577 74.0298 40.7564 72.9988 40.0586Z" fill="#C9F5C9"/>
<path fill-rule="evenodd" clip-rule="evenodd" d="M70.566 145.277C71.5584 146.168 72.082 148.086 73.3135 148.26L74.5449 148.434L74.4041 150.154L72.8461 150.271C72.8461 150.271 72.8201 152.684 72.227 152.856C71.634 153.028 71.5755 151.605 71.5755 151.605C71.5755 151.605 70.4753 154.644 69.8779 154.706C69.2803 154.769 69.4313 152.966 69.4313 152.966C69.4313 152.966 66.2086 155.458 65.3616 155.528C64.5144 155.599 66.9125 153.111 66.9125 153.111C66.9125 153.111 61.197 154.564 60.8802 154.157C60.5635 153.75 64.9814 151.747 64.9814 151.747C64.9814 151.747 58.5729 152.866 58.1821 152.378C57.6243 151.682 63.5168 150.339 64.8091 148C65.9517 145.932 69.5737 144.386 70.566 145.277Z" fill="#9EB4B5"/>
<path fill-rule="evenodd" clip-rule="evenodd" d="M70.091 146.562C70.091 146.562 69.3243 147.99 68.0047 148.119C67.6526 148.168 67.2919 148.109 66.9843 147.95C66.6768 147.792 66.4416 147.545 66.319 147.251C65.5961 148.238 64.6846 149.109 63.6246 149.825C62.0646 150.795 61.2061 150.899 60.9677 151.181C60.7292 151.462 61.9557 151.797 63.6542 151.458C65.3527 151.119 66.5628 149.842 66.5628 149.842C66.5628 149.842 66.3825 150.319 66.8706 150.336C66.9928 150.35 67.117 150.343 67.236 150.315C67.355 150.287 67.4664 150.238 67.564 150.172C67.1221 150.698 66.6036 151.172 66.0217 151.58C65.1458 152.167 64.6554 152.402 64.9386 152.601C65.2218 152.801 66.3743 152.556 67.2413 152.057C68.1083 151.558 68.7635 150.463 68.7635 150.463C68.7635 150.463 68.6455 151.245 68.9309 151.192C69.1313 151.142 69.3127 151.045 69.4569 150.913C69.4569 150.913 69.177 153.224 69.8989 153.157C70.6213 153.091 71.011 151.313 71.0242 150.721C71.0373 150.128 71.6685 150.887 71.8757 150.452C71.9266 150.302 71.9373 150.143 71.9071 149.988C71.8769 149.833 71.8065 149.686 71.7014 149.559C71.7014 149.559 72.8434 150.269 73.6222 150.21C74.4014 150.152 74.585 151.757 74.585 151.757C74.585 151.757 74.3869 149.311 74.4448 149.11C74.5031 148.91 72.6687 148.761 72.1671 148.108C71.6652 147.455 70.9222 146.108 70.5857 145.823C70.3969 145.656 70.1509 145.548 69.8855 145.516C69.8855 145.516 70.238 146.184 70.091 146.562Z" fill="#8BA2A3"/>
<path fill-rule="evenodd" clip-rule="evenodd" d="M89.2985 141.295C88.759 142.447 89.0934 144.398 88.0263 144.964L86.9594 145.53L87.8248 147.078L89.319 146.674C89.319 146.674 90.3743 148.903 90.9978 148.868C91.621 148.832 91.0666 147.493 91.0666 147.493C91.0666 147.493 93.3854 149.949 93.9662 149.811C94.547 149.672 93.6363 148.05 93.6363 148.05C93.6363 148.05 97.6892 149.301 98.5049 149.088C99.3202 148.875 96.0338 147.357 96.0338 147.357C96.0338 147.357 101.953 146.824 102.073 146.343C102.193 145.862 97.2412 145.457 97.2412 145.457C97.2412 145.457 103.661 144.387 103.815 143.806C104.034 142.977 97.9972 143.671 95.7995 141.927C93.8567 140.385 89.838 140.143 89.2985 141.295Z" fill="#9EB4B5"/>
<path fill-rule="evenodd" clip-rule="evenodd" d="M90.2864 142.332C90.2864 142.332 91.607 143.404 92.8859 143.09C93.2335 143.02 93.5424 142.846 93.7598 142.598C93.9772 142.35 94.0896 142.044 94.0776 141.731C95.1699 142.409 96.387 142.916 97.6756 143.232C99.5368 143.618 100.377 143.432 100.718 143.615C101.06 143.798 100.066 144.51 98.3461 144.755C96.6267 145 94.9589 144.213 94.9589 144.213C94.9589 144.213 95.33 144.596 94.8849 144.773C94.7776 144.826 94.6594 144.86 94.5371 144.873C94.4148 144.886 94.2907 144.878 94.1721 144.849C94.8067 145.191 95.4896 145.46 96.2037 145.647C97.2667 145.903 97.8213 145.96 97.6439 146.238C97.4668 146.515 96.2935 146.667 95.2769 146.49C94.2599 146.313 93.1842 145.513 93.1842 145.513C93.1842 145.513 93.6281 146.199 93.3408 146.244C93.1332 146.263 92.9238 146.233 92.7336 146.158C92.7336 146.158 93.9811 148.208 93.283 148.384C92.585 148.56 91.4642 147.04 91.1987 146.495C90.9332 145.95 90.6722 146.861 90.2946 146.526C90.1831 146.403 90.1052 146.259 90.067 146.106C90.0288 145.952 90.0313 145.793 90.0743 145.64C90.0743 145.64 89.319 146.674 88.5718 146.876C87.8248 147.078 88.3404 148.627 88.3404 148.627C88.3404 148.627 87.4786 146.293 87.3392 146.127C87.1998 145.96 88.8365 145.219 89.0226 144.448C89.2086 143.678 89.3217 142.185 89.512 141.81C89.6157 141.593 89.7976 141.412 90.0299 141.295C90.0299 141.295 89.9887 142.031 90.2864 142.332Z" fill="#8BA2A3"/>
<path fill-rule="evenodd" clip-rule="evenodd" d="M66.7366 137.288L80.007 132.389C88.1758 142.596 92.1466 153.105 86.6016 165.037L71.8854 161.924C71.8854 161.924 78.3327 150.001 66.7366 137.288Z" fill="#B7EBB7"/>
<path fill-rule="evenodd" clip-rule="evenodd" d="M69.9725 138.246L71.8711 137.61L79.4935 135.055C80.5301 136.404 85.2446 142.797 86.4097 148.933C87.2262 153.505 86.7543 158.183 85.0351 162.558L74.553 160.549C75.3364 158.314 78.3496 147.84 69.9725 138.246ZM71.5406 136.857L69.0622 137.687L68.4747 137.884L68.8692 138.317C78.4909 148.865 73.5365 160.677 73.5225 160.712L73.3469 161.143L73.8569 161.241L85.2236 163.42L85.6024 163.493L85.7484 163.177C87.6457 158.578 88.185 153.633 87.3162 148.802C85.972 141.724 80.061 134.356 80.0439 134.334L79.8386 134.076L79.5024 134.189L71.5406 136.857Z" fill="#8BBB8B"/>
<path fill-rule="evenodd" clip-rule="evenodd" d="M74.469 149.644C74.8294 151.475 77.8957 152.642 81.3174 152.25C84.7395 151.859 87.2211 150.058 86.8607 148.227C86.5 146.396 83.4341 145.229 80.012 145.62C76.5903 146.012 74.1085 147.813 74.469 149.644Z" fill="#8BBB8B"/>
<path fill-rule="evenodd" clip-rule="evenodd" d="M75.4382 141.672C75.7917 142.451 76.9065 142.894 77.9279 142.662C78.9493 142.429 79.4904 141.609 79.1369 140.831C78.7834 140.052 77.6686 139.609 76.6473 139.841C75.6259 140.073 75.0846 140.893 75.4382 141.672Z" fill="#92D192"/>
<path fill-rule="evenodd" clip-rule="evenodd" d="M79.7081 157.914C80.6156 158.433 81.8788 158.395 82.5293 157.831C83.18 157.266 82.9718 156.387 82.0643 155.868C81.1567 155.349 79.8938 155.386 79.2431 155.951C78.5925 156.516 78.8008 157.395 79.7081 157.914Z" fill="#92D192"/>
<path fill-rule="evenodd" clip-rule="evenodd" d="M71.7043 137.238L69.3685 138.226L70.7448 139.896C71.1257 140.358 72.6165 138.657 71.7043 137.238Z" fill="#8BBB8B"/>
<path fill-rule="evenodd" clip-rule="evenodd" d="M85.9053 160.512L85.114 162.987L82.7696 162.369C82.1206 162.198 83.9621 160.219 85.9053 160.512Z" fill="#8BBB8B"/>
<path fill-rule="evenodd" clip-rule="evenodd" d="M74.7494 158.369L74.2998 160.909L76.7248 161.2C77.3963 161.28 76.6561 158.81 74.7494 158.369Z" fill="#8BBB8B"/>
<path fill-rule="evenodd" clip-rule="evenodd" d="M77.4796 135.738L79.8193 134.758L80.9047 136.838C81.1753 137.356 78.1706 137.25 77.4796 135.738Z" fill="#8BBB8B"/>
<path d="M76.4431 149.091L75.808 149.174L75.9723 150.138L76.6075 150.055C76.9453 150.865 77.7512 151.197 78.9114 151.045L79.1802 151.01L78.9902 149.896L78.6361 149.942C78.0254 150.022 77.7568 149.839 77.6929 149.464C77.6289 149.089 77.8245 148.844 78.4352 148.764C80.1939 148.533 80.6721 150.825 83.1148 150.505C84.2751 150.353 84.9453 149.816 84.9983 148.954L85.6211 148.873L85.4567 147.909L84.8339 147.99C84.4942 147.17 83.676 146.839 82.5158 146.991L81.9295 147.068L82.1195 148.182L82.7912 148.094C83.4019 148.014 83.6619 148.221 83.7259 148.596C83.7898 148.971 83.6101 149.235 82.9994 149.315C81.2406 149.546 80.7624 147.254 78.3197 147.574C77.1717 147.725 76.5101 148.239 76.4431 149.091Z" fill="#C9F5C9"/>
<path fill-rule="evenodd" clip-rule="evenodd" d="M76.2576 88.0135C76.6424 88.9538 76.2944 90.5061 77.1261 90.9937L77.958 91.4813L77.2009 92.6943L76.0204 92.323C76.0204 92.323 75.0833 94.0753 74.5852 94.0273C74.0872 93.9793 74.5861 92.924 74.5861 92.924C74.5861 92.924 72.6273 94.8184 72.1678 94.6892C71.7081 94.5599 72.5042 93.2892 72.5042 93.2892C72.5042 93.2892 69.2056 94.1633 68.5611 93.9667C67.9163 93.7702 70.6119 92.6579 70.6119 92.6579C70.6119 92.6579 65.8908 92.0439 65.8146 91.6545C65.7382 91.2653 69.7227 91.0973 69.7227 91.0973C69.7227 91.0973 64.623 90.0374 64.5235 89.5674C64.3818 88.896 69.19 89.6422 71.0226 88.3145C72.643 87.1405 75.8727 87.0735 76.2576 88.0135Z" fill="#9EB4B5"/>
<path fill-rule="evenodd" clip-rule="evenodd" d="M75.4253 88.8134C75.4253 88.8134 74.3229 89.6302 73.3113 89.3382C73.0357 89.2711 72.7953 89.122 72.6312 88.9165C72.4672 88.711 72.3897 88.4619 72.4121 88.2118C71.5091 88.7203 70.513 89.0885 69.4675 89.3003C67.9605 89.5512 67.2949 89.3756 67.0138 89.5114C66.7327 89.6469 67.5001 90.2497 68.8677 90.4999C69.7967 90.6253 70.7471 90.5117 71.6039 90.1729C71.6039 90.1729 71.2909 90.4681 71.6403 90.6236C71.7241 90.6695 71.8175 90.7005 71.915 90.7148C72.0125 90.729 72.1123 90.7263 72.2086 90.7067C71.686 90.9612 71.1277 91.1547 70.5479 91.2822C69.6857 91.4539 69.2387 91.4817 69.3695 91.7097C69.5 91.9383 70.4337 92.0972 71.2559 91.987C71.8791 91.8561 72.4639 91.6119 72.9726 91.2701C72.9726 91.2701 72.589 91.806 72.8172 91.8511C72.9827 91.8726 73.1517 91.8553 73.3072 91.8011C73.3072 91.8011 72.2236 93.4048 72.7755 93.5675C73.3277 93.7304 74.2883 92.5482 74.5233 92.1198C74.7584 91.6915 74.93 92.4297 75.2465 92.1734C75.3409 92.0784 75.4092 91.9656 75.4461 91.8438C75.483 91.722 75.4876 91.5944 75.4593 91.4708C75.4593 91.4708 76.0222 92.3227 76.6124 92.5082C77.2027 92.694 76.726 93.9181 76.726 93.9181C76.726 93.9181 77.5125 92.0758 77.6309 91.9467C77.7495 91.8179 76.4685 91.172 76.3511 90.549C76.2336 89.9257 76.2042 88.7257 76.0673 88.4191C75.9931 88.2422 75.8548 88.0915 75.6735 87.9902C75.6735 87.9902 75.6762 88.5812 75.4253 88.8134Z" fill="#8BA2A3"/>
<path fill-rule="evenodd" clip-rule="evenodd" d="M91.4374 90.5966C90.6055 91.279 90.1072 92.7993 89.1133 92.9001L88.1198 93.0006L88.162 94.383L89.4055 94.5256C89.4055 94.5256 89.3272 96.46 89.7953 96.6168C90.2633 96.7733 90.3684 95.6346 90.3684 95.6346C90.3684 95.6346 91.1254 98.1042 91.6014 98.1735C92.0777 98.2426 92.0306 96.7932 92.0306 96.7932C92.0306 96.7932 94.5105 98.8919 95.1866 98.9752C95.8623 99.0585 94.0431 96.9892 94.0431 96.9892C94.0431 96.9892 98.563 98.3335 98.8336 98.0178C99.104 97.7019 95.6465 95.9571 95.6465 95.9571C95.6465 95.9571 100.735 97.0563 101.069 96.6777C101.544 96.1372 96.8777 94.8756 95.9383 92.9605C95.108 91.2673 92.2693 89.9141 91.4374 90.5966Z" fill="#9EB4B5"/>
<path fill-rule="evenodd" clip-rule="evenodd" d="M91.7621 91.6404C91.7621 91.6404 92.3174 92.8086 93.3697 92.9538C93.6498 93.0045 93.9413 92.9681 94.1942 92.851C94.4471 92.7338 94.6456 92.5432 94.7558 92.3117C95.2947 93.1256 95.9892 93.8521 96.8091 94.4593C98.0195 95.286 98.703 95.3963 98.8824 95.6296C99.0618 95.8628 98.0657 96.0916 96.7185 95.7665C95.8266 95.5063 95.04 95.0247 94.4541 94.38C94.4541 94.38 94.579 94.768 94.1872 94.7666C94.0887 94.7739 93.9896 94.7641 93.8954 94.7377C93.8013 94.7114 93.714 94.669 93.6385 94.6131C93.9709 95.0488 94.3669 95.4445 94.8164 95.7901C95.4943 96.2881 95.8772 96.4917 95.6421 96.6424C95.4072 96.7932 94.4937 96.5607 93.8197 96.1337C93.3334 95.7675 92.9402 95.3159 92.6654 94.8081C92.6654 94.8081 92.7278 95.4388 92.5013 95.3873C92.3429 95.3401 92.2015 95.257 92.0914 95.1465C92.0914 95.1465 92.2209 97.0074 91.6448 96.9312C91.069 96.8549 90.8298 95.4184 90.8435 94.9432C90.8573 94.468 90.3203 95.056 90.1722 94.7015C90.1376 94.5791 90.1356 94.4514 90.1662 94.3282C90.1967 94.205 90.2591 94.0896 90.3486 93.9909C90.3486 93.9909 89.4045 94.5235 88.7826 94.4523C88.161 94.381 87.9477 95.6613 87.9477 95.6613C87.9477 95.6613 88.2071 93.7071 88.1688 93.5449C88.1304 93.3828 89.6063 93.3211 90.0351 92.8137C90.4639 92.3063 91.1146 91.2503 91.3961 91.0325C91.5542 90.9048 91.7557 90.8261 91.9697 90.8086C91.9697 90.8086 91.6596 91.3332 91.7621 91.6404Z" fill="#8BA2A3"/>
<path fill-rule="evenodd" clip-rule="evenodd" d="M76.5056 81.0723L88.0486 81.3836C90.1223 91.2194 89.0197 100.046 80.4353 107.125L70.8869 100.547C70.8869 100.547 80.1258 93.7387 76.5056 81.0723Z" fill="#B7EBB7"/>
<path fill-rule="evenodd" clip-rule="evenodd" d="M78.5003 82.7218L80.127 82.8137L86.6582 83.1822C86.901 84.4694 87.9069 90.512 86.4217 95.3285C85.2776 98.9018 83.1535 102.175 80.235 104.863L73.3546 100.329C74.7764 98.9281 80.9595 92.1711 78.5003 82.7218ZM80.1724 82.1679L78.049 82.0479L77.5455 82.0195L77.6688 82.4504C80.6725 92.9601 72.5643 100.125 72.5411 100.146L72.2488 100.409L72.5835 100.63L80.0445 105.547L80.2931 105.711L80.5196 105.523C83.6533 102.724 85.9284 99.2756 87.1329 95.4978C88.8459 89.942 87.3383 82.8381 87.334 82.8175L87.2825 82.569L86.9944 82.5529L80.1724 82.1679Z" fill="#8BBB8B"/>
<path fill-rule="evenodd" clip-rule="evenodd" d="M77.4446 92.3454C77.0108 93.7862 78.803 95.5351 81.4474 96.2514C84.0921 96.9679 86.5875 96.3806 87.0213 94.9398C87.4548 93.499 85.6629 91.7503 83.0182 91.0338C80.3737 90.3175 77.8783 90.9046 77.4446 92.3454Z" fill="#8BBB8B"/>
<path fill-rule="evenodd" clip-rule="evenodd" d="M81.1864 86.8107C81.1935 87.1623 81.3416 87.5005 81.6048 87.7659C81.8681 88.0312 82.2295 88.2066 82.6256 88.2613C83.459 88.3909 84.1656 87.9513 84.2041 87.2798C84.197 86.9281 84.0489 86.5899 83.7856 86.3246C83.5224 86.0593 83.161 85.884 82.7649 85.8293C81.9315 85.6997 81.2249 86.139 81.1864 86.8107Z" fill="#92D192"/>
<path fill-rule="evenodd" clip-rule="evenodd" d="M78.1194 99.9121C78.5838 100.556 79.5192 100.899 80.2085 100.678C80.8981 100.456 81.0805 99.7542 80.6161 99.1101C80.1517 98.4658 79.2165 98.1232 78.527 98.3447C77.8376 98.5661 77.6551 99.268 78.1194 99.9121Z" fill="#92D192"/>
<path fill-rule="evenodd" clip-rule="evenodd" d="M80.1517 82.4863L78.0722 82.5231L78.4407 84.1436C78.5427 84.5921 80.2774 83.7878 80.1517 82.4863Z" fill="#8BBB8B"/>
<path fill-rule="evenodd" clip-rule="evenodd" d="M81.6475 103.625L80.1287 105.198L78.6538 104.062C78.2454 103.747 80.3416 102.843 81.6475 103.625Z" fill="#8BBB8B"/>
<path fill-rule="evenodd" clip-rule="evenodd" d="M74.3289 98.791L73.0345 100.512L74.6926 101.434C75.1516 101.689 75.5519 99.6705 74.3289 98.791Z" fill="#8BBB8B"/>
<path fill-rule="evenodd" clip-rule="evenodd" d="M84.928 83.0888L87.0075 83.0586L87.0078 84.8931C87.0077 85.3507 84.8569 84.3934 84.928 83.0888Z" fill="#8BBB8B"/>
<path d="M79.0925 92.5198L78.5976 92.3947L78.3506 93.146L78.8455 93.2711C78.7837 93.9608 79.245 94.4392 80.1491 94.6678L80.3585 94.7208L80.6439 93.8526L80.368 93.7828C79.8921 93.6624 79.7662 93.4497 79.8622 93.1575C79.9582 92.8654 80.1939 92.7442 80.6698 92.8646C82.0403 93.2112 81.5169 95.0228 83.4204 95.5043C84.3244 95.7329 85.0175 95.5375 85.3839 94.9248L85.8692 95.0477L86.1162 94.2964L85.6309 94.1736C85.6955 93.4756 85.2246 92.9948 84.3205 92.7661L83.8637 92.6506L83.5783 93.5188L84.1017 93.6511C84.5776 93.7715 84.6885 93.9985 84.5925 94.2906C84.4964 94.5828 84.2647 94.7232 83.7888 94.6028C82.4183 94.2562 82.9417 92.4446 81.0383 91.9631C80.1437 91.7369 79.4656 91.9179 79.0925 92.5198Z" fill="#C9F5C9"/>
<path fill-rule="evenodd" clip-rule="evenodd" d="M25.712 10.3392C26.5079 11.0537 26.9279 12.5923 27.9156 12.7321L28.9033 12.8718L28.7904 14.2512L27.5407 14.3444C27.5407 14.3444 27.5199 16.2798 27.0442 16.418C26.5686 16.5561 26.5216 15.4144 26.5216 15.4144C26.5216 15.4144 25.6392 17.8519 25.1601 17.9021C24.6808 17.9524 24.8018 16.5064 24.8018 16.5064C24.8018 16.5064 22.217 18.5052 21.5377 18.5616C20.8581 18.6183 22.7816 16.623 22.7816 16.623C22.7816 16.623 18.1974 17.7878 17.9433 17.4616C17.6893 17.1355 21.2327 15.5285 21.2327 15.5285C21.2327 15.5285 16.0927 16.4261 15.7793 16.035C15.3319 15.4762 20.058 14.3997 21.0945 12.5236C22.011 10.8647 24.9161 9.62487 25.712 10.3392Z" fill="#9EB4B5"/>
<path fill-rule="evenodd" clip-rule="evenodd" d="M25.3321 11.3703C25.3321 11.3703 24.7171 12.5155 23.6587 12.6191C23.3763 12.6587 23.087 12.6109 22.8403 12.484C22.5937 12.357 22.405 12.1587 22.3067 11.9231C21.7269 12.715 20.9958 13.4134 20.1456 13.9876C18.8943 14.7658 18.2058 14.8491 18.0146 15.0752C17.8233 15.301 18.807 15.569 20.1693 15.2973C21.0735 15.0723 21.8839 14.6221 22.5022 14.0013C22.5022 14.0013 22.3576 14.384 22.7491 14.3979C22.8472 14.409 22.9468 14.4031 23.0422 14.3805C23.1376 14.3579 23.227 14.3189 23.3053 14.266C22.9509 14.6882 22.535 15.0679 22.0682 15.3954C21.3657 15.8663 20.9724 16.0547 21.1995 16.2144C21.4267 16.3745 22.351 16.1782 23.0465 15.7779C23.551 15.4314 23.9669 14.9959 24.2674 14.4995C24.2674 14.4995 24.1727 15.1268 24.4016 15.0844C24.5623 15.0436 24.7078 14.9662 24.8235 14.8602C24.8235 14.8602 24.599 16.7139 25.178 16.6605C25.7574 16.607 26.07 15.1814 26.0805 14.7061C26.0911 14.2308 26.5973 14.8394 26.7635 14.4909C26.8043 14.37 26.8129 14.2426 26.7887 14.1183C26.7645 13.9941 26.708 13.8764 26.6237 13.7743C26.6237 13.7743 27.5397 14.3435 28.1643 14.2967C28.7893 14.2502 28.9365 15.5373 28.9365 15.5373C28.9365 15.5373 28.7777 13.575 28.8242 13.4144C28.8709 13.2541 27.3996 13.1342 26.9973 12.6106C26.5947 12.0867 25.9987 11.0063 25.7289 10.7775C25.5774 10.6437 25.3801 10.5572 25.1672 10.5312C25.1672 10.5312 25.45 11.0676 25.3321 11.3703Z" fill="#8BA2A3"/>
<path fill-rule="evenodd" clip-rule="evenodd" d="M40.7383 7.14461C40.3056 8.06872 40.5738 9.633 39.7179 10.0875L38.8622 10.5415L39.5563 11.7832L40.7547 11.4589C40.7547 11.4589 41.6011 13.2465 42.1012 13.2182C42.6011 13.1897 42.1564 12.1159 42.1564 12.1159C42.1564 12.1159 44.0163 14.0852 44.4821 13.9745C44.948 13.8635 44.2175 12.5627 44.2175 12.5627C44.2175 12.5627 47.4682 13.566 48.1224 13.3949C48.7763 13.2241 46.1404 12.0064 46.1404 12.0064C46.1404 12.0064 50.8882 11.5791 50.9845 11.1932C51.0805 10.8073 47.1088 10.4826 47.1088 10.4826C47.1088 10.4826 52.2577 9.62476 52.3811 9.15888C52.5568 8.4939 47.7152 9.04986 45.9525 7.65133C44.3942 6.41477 41.171 6.22042 40.7383 7.14461Z" fill="#9EB4B5"/>
<path fill-rule="evenodd" clip-rule="evenodd" d="M41.5315 7.97665C41.5315 7.97665 42.5907 8.83621 43.6164 8.58418C43.8952 8.52804 44.143 8.38861 44.3173 8.18979C44.4917 7.99097 44.5819 7.74514 44.5723 7.49443C45.4484 8.03785 46.4246 8.44493 47.4581 8.69785C48.9509 9.00777 49.6249 8.85856 49.8986 9.0052C50.1724 9.15183 49.3751 9.72349 47.9959 9.91951C47.0614 10.0085 46.1177 9.85759 45.2791 9.48522C45.2791 9.48522 45.5768 9.7925 45.2198 9.93419C45.1337 9.97676 45.0389 10.004 44.9408 10.0144C44.8427 10.0249 44.7432 10.0182 44.648 9.99488C45.157 10.2698 45.7048 10.4851 46.2775 10.6352C47.1301 10.8407 47.575 10.886 47.4327 11.1088C47.2906 11.3317 46.3496 11.4537 45.5342 11.3114C44.9183 11.156 44.3465 10.8889 43.8557 10.5274C43.8557 10.5274 44.2117 11.0781 43.9813 11.114C43.8148 11.1289 43.6468 11.105 43.4943 11.0446C43.4943 11.0446 44.4949 12.6894 43.9349 12.8305C43.3751 12.9712 42.4761 11.7524 42.2632 11.3152C42.0502 10.8781 41.8409 11.6087 41.538 11.3405C41.4486 11.2418 41.3861 11.1264 41.3555 11.0032C41.3248 10.8801 41.3268 10.7524 41.3613 10.63C41.3613 10.63 40.7555 11.4588 40.1562 11.621C39.5571 11.7831 39.9706 13.0251 39.9706 13.0251C39.9706 13.0251 39.2794 11.1535 39.1676 11.02C39.0558 10.8866 40.3686 10.2918 40.5178 9.67386C40.667 9.05599 40.7577 7.85827 40.9103 7.55746C40.9935 7.38364 41.1394 7.23858 41.3257 7.14453C41.3257 7.14453 41.2927 7.73475 41.5315 7.97665Z" fill="#8BA2A3"/>
<path fill-rule="evenodd" clip-rule="evenodd" d="M22.638 3.92994L33.2818 0C39.8337 8.1869 43.0185 16.6156 38.5711 26.186L26.7677 23.6891C26.7677 23.6891 31.9389 14.1263 22.638 3.92994Z" fill="#B7EBB7"/>
<path fill-rule="evenodd" clip-rule="evenodd" d="M25.2333 4.69593L26.7561 4.18576L32.8698 2.13695C33.7012 3.21888 37.4826 8.34626 38.4171 13.268C39.0719 16.9349 38.6934 20.6867 37.3145 24.1957L28.9071 22.5842C29.5355 20.7916 31.9523 12.3907 25.2333 4.69593ZM26.491 3.582L24.5032 4.24791L24.032 4.40584L24.3484 4.7526C32.0656 13.2128 28.0918 22.6875 28.0807 22.7149L27.9398 23.0611L28.3489 23.1395L37.4657 24.8871L37.7695 24.9454L37.8866 24.6924C39.4084 21.0037 39.841 17.0373 39.1441 13.1625C38.066 7.48529 33.3249 1.57593 33.3112 1.55873L33.1466 1.35156L32.8769 1.44212L26.491 3.582Z" fill="#8BBB8B"/>
<path fill-rule="evenodd" clip-rule="evenodd" d="M28.8388 13.8383C29.1279 15.3068 31.5872 16.2429 34.3316 15.9291C37.0764 15.6153 39.0668 14.1705 38.7778 12.702C38.4884 11.2336 36.0294 10.2976 33.2847 10.6114C30.5403 10.9252 28.5496 12.3699 28.8388 13.8383Z" fill="#8BBB8B"/>
<path fill-rule="evenodd" clip-rule="evenodd" d="M29.6175 7.44383C29.7908 7.76102 30.086 8.01448 30.4512 8.15967C30.8164 8.30486 31.2283 8.33248 31.6144 8.23767C32.4337 8.0513 32.8677 7.39363 32.5841 6.76893C32.4109 6.45176 32.1157 6.19832 31.7505 6.05317C31.3852 5.90803 30.9734 5.88047 30.5873 5.97535C29.768 6.16166 29.3339 6.819 29.6175 7.44383Z" fill="#92D192"/>
<path fill-rule="evenodd" clip-rule="evenodd" d="M33.0437 20.4754C33.7715 20.8915 34.7847 20.8618 35.3065 20.4088C35.8283 19.9556 35.6614 19.251 34.9335 18.8348C34.2056 18.4184 33.1926 18.4483 32.6707 18.9013C32.1489 19.3543 32.3159 20.0591 33.0437 20.4754Z" fill="#92D192"/>
<path fill-rule="evenodd" clip-rule="evenodd" d="M26.6232 3.88867L24.7497 4.68111L25.8536 6.02009C26.1591 6.39076 27.3548 5.02627 26.6232 3.88867Z" fill="#8BBB8B"/>
<path fill-rule="evenodd" clip-rule="evenodd" d="M38.0127 22.5607L37.3781 24.5456L35.4977 24.0505C34.9772 23.9135 36.4542 22.3261 38.0127 22.5607Z" fill="#8BBB8B"/>
<path fill-rule="evenodd" clip-rule="evenodd" d="M29.0635 20.8379L28.7029 22.8751L30.6479 23.1084C31.1865 23.1729 30.5928 21.1912 29.0635 20.8379Z" fill="#8BBB8B"/>
<path fill-rule="evenodd" clip-rule="evenodd" d="M31.2537 2.6869L33.1303 1.90039L34.0009 3.56843C34.2179 3.98456 31.8079 3.89906 31.2537 2.6869Z" fill="#8BBB8B"/>
<path d="M30.4228 13.3927L29.9134 13.4596L30.0453 14.2329L30.5547 14.166C30.8256 14.8157 31.472 15.0824 32.4026 14.9603L32.6181 14.932L32.4658 14.0384L32.1817 14.0757C31.6919 14.1399 31.4765 13.9924 31.4252 13.6917C31.374 13.3909 31.5308 13.1947 32.0206 13.1305C33.4312 12.9454 33.8148 14.7838 35.774 14.5269C36.7046 14.4048 37.2421 13.9741 37.2846 13.2833L37.7842 13.2179L37.6524 12.4446L37.1528 12.5101C36.8804 11.8518 36.2241 11.5865 35.2935 11.7085L34.8233 11.7702L34.9757 12.6638L35.5144 12.5931C36.0042 12.5289 36.2128 12.6948 36.2641 12.9955C36.3154 13.2963 36.1712 13.5085 35.6814 13.5727C34.2708 13.7578 33.8873 11.9193 31.928 12.1763C31.0072 12.2971 30.4766 12.7093 30.4228 13.3927Z" fill="#C9F5C9"/>
</svg>
